<svg width="400" height="300" viewBox="0 0 400 300" fill="none" xmlns="http://www.w3.org/2000/svg">
<g clip-path="url(#clip0_110_43)">
<rect width="400" height="300" fill="#D4E1DF"/>
<g clip-path="url(#clip1_110_43)">
<path d="M-7.5 254.292H433.5V224.375H-7.5V254.292ZM-7.5 299.167H433.5V284.208H-7.5V299.167ZM-7.5 194.458H433.5V149.583H-7.5V194.458ZM-7.5 59.8333V119.667H433.5V59.8333H-7.5Z" fill="#AAC0B2"/>
<path d="M87.7642 95.2358L60.25 82.7917L87.7642 70.3475L100.208 42.8333L112.652 70.3475L140.167 82.7917L112.652 95.2358L100.208 122.75L87.7642 95.2358ZM131.947 165.22L123.042 145.583L114.137 165.22L94.5 174.125L114.137 183.03L123.042 202.667L131.947 183.03L151.583 174.125L131.947 165.22ZM74.4067 184.058L96.555 200.84L68.0133 250.274L42.44 239.543C40.1567 241.027 37.645 242.511 35.1333 243.767L31.7083 271.167H-25.375L-28.8 243.653C-31.3117 242.397 -33.7092 241.027 -36.1067 239.428L-61.68 250.16L-90.2217 200.726L-68.0733 183.943C-68.1875 182.688 -68.1875 181.203 -68.1875 179.833C-68.1875 178.463 -68.1875 176.979 -68.0733 175.609L-90.2217 158.827L-61.68 109.393L-36.1067 120.124C-33.8233 118.64 -31.3117 117.156 -28.8 115.9L-25.375 88.5H31.7083L35.1333 116.014C37.645 117.27 40.0425 118.64 42.44 120.238L68.0133 109.507L96.555 158.941L74.4067 175.723C74.5208 177.093 74.5208 178.463 74.5208 179.948C74.5208 181.432 74.5208 182.688 74.4067 184.058ZM37.4167 179.833C37.4167 160.882 22.1183 145.583 3.16666 145.583C-15.785 145.583 -31.0833 160.882 -31.0833 179.833C-31.0833 198.785 -15.785 214.083 3.16666 214.083C22.1183 214.083 37.4167 198.785 37.4167 179.833Z" fill="#D4E1DF"/>
</g>
<path d="M396.903 131.903L378.665 159.261C387.389 176.662 391.661 195.956 391.096 215.413C390.531 234.871 385.148 253.884 375.429 270.75H171.571C158.939 248.836 153.705 223.435 156.645 198.312C159.584 173.19 170.541 149.683 187.89 131.277C205.24 112.871 228.058 100.546 252.964 96.1282C277.869 91.7106 303.535 95.436 326.156 106.752L353.514 88.5137C324.531 69.73 289.864 61.744 255.584 65.9552C221.305 70.1663 189.601 86.306 166.027 111.546C142.453 136.786 128.513 169.517 126.65 204.004C124.786 238.49 135.117 272.533 155.834 300.167H391.167C409.208 276.063 419.417 247.004 420.417 216.914C421.416 186.823 413.158 157.151 396.756 131.903H396.903Z" fill="#013B01"/>
<path d="M252.761 232.655C255.493 235.39 258.738 237.56 262.309 239.041C265.88 240.521 269.708 241.283 273.574 241.283C277.439 241.283 281.267 240.521 284.838 239.041C288.41 237.56 291.654 235.39 294.386 232.655L377.635 107.782L252.761 191.031C250.026 193.763 247.857 197.007 246.376 200.578C244.896 204.149 244.134 207.977 244.134 211.843C244.134 215.709 244.896 219.537 246.376 223.108C247.857 226.679 250.026 229.923 252.761 232.655V232.655Z" fill="#013B01"/>
</g>
<defs>
<clipPath id="clip0_110_43">
<rect width="400" height="300" fill="white"/>
</clipPath>
<clipPath id="clip1_110_43">
<rect width="588" height="359" fill="white" transform="translate(-81)"/>
</clipPath>
</defs>
</svg>
