<svg width="400" height="300" viewBox="0 0 400 300" fill="none" xmlns="http://www.w3.org/2000/svg">
<g clip-path="url(#clip0_109_3)">
<rect width="400" height="300" fill="#D4E1DF"/>
<path d="M405.625 213.292H175.375V315.625H405.625V213.292ZM226.542 290.042C212.471 290.042 200.958 278.529 200.958 264.458C200.958 250.388 212.471 238.875 226.542 238.875C240.613 238.875 252.125 250.388 252.125 264.458C252.125 278.529 240.613 290.042 226.542 290.042ZM405.625 85.375H175.375V187.708H405.625V85.375ZM226.542 162.125C212.471 162.125 200.958 150.613 200.958 136.542C200.958 122.471 212.471 110.958 226.542 110.958C240.613 110.958 252.125 122.471 252.125 136.542C252.125 150.613 240.613 162.125 226.542 162.125Z" fill="#013B01" fill-opacity="0.2"/>
<path d="M130.625 96.875L139.219 77.9688L158.125 69.375L139.219 60.7812L130.625 41.875L122.031 60.7812L103.125 69.375L122.031 77.9688L130.625 96.875ZM79.0625 100.312L61.875 62.5L44.6875 100.312L6.875 117.5L44.6875 134.688L61.875 172.5L79.0625 134.688L116.875 117.5L79.0625 100.312ZM130.625 138.125L122.031 157.031L103.125 165.625L122.031 174.219L130.625 193.125L139.219 174.219L158.125 165.625L139.219 157.031L130.625 138.125Z" fill="#C0D2C0"/>
<path d="M44.85 203C44.85 183.335 60.835 167.35 80.5 167.35H126.5V145.5H80.5C48.76 145.5 23 171.26 23 203C23 234.74 48.76 260.5 80.5 260.5H126.5V238.65H80.5C60.835 238.65 44.85 222.665 44.85 203ZM92 214.5H184V191.5H92V214.5ZM195.5 145.5H149.5V167.35H195.5C215.165 167.35 231.15 183.335 231.15 203C231.15 222.665 215.165 238.65 195.5 238.65H149.5V260.5H195.5C227.24 260.5 253 234.74 253 203C253 171.26 227.24 145.5 195.5 145.5Z" fill="#013B01"/>
</g>
<defs>
<clipPath id="clip0_109_3">
<rect width="400" height="300" fill="white"/>
</clipPath>
</defs>
</svg>
