<svg width="400" height="300" viewBox="0 0 400 300" fill="none" xmlns="http://www.w3.org/2000/svg">
<g clip-path="url(#clip0_112_2)">
<rect width="400" height="300" fill="#D4E1DF"/>
<path d="M-10.0059 337.923V94.7135H291.37V337.923H-10.0059ZM140.5 229.587L262.287 148.518V123.797L140.5 203.049L18.7139 123.797V148.518L140.5 229.587Z" fill="#AAC0B2"/>
<path d="M169 51H334V216H169V51ZM345 227H367V249H345V227ZM345 194H367V216H345V194ZM345 161H367V183H345V161ZM345 128H367V150H345V128ZM345 95H367V117H345V95ZM312 227H334V249H312V227ZM279 227H301V249H279V227ZM246 227H268V249H246V227ZM213 227H235V249H213V227Z" fill="#013B01"/>
</g>
<defs>
<clipPath id="clip0_112_2">
<rect width="400" height="300" fill="white"/>
</clipPath>
</defs>
</svg>
