<svg width="400" height="300" viewBox="0 0 400 300" fill="none" xmlns="http://www.w3.org/2000/svg">
<g clip-path="url(#clip0_110_30)">
<rect width="400" height="300" fill="#D4E1DF"/>
<path d="M456.375 89.625H236.747V309.375H456.375V89.625ZM431.958 236.125H383.125C383.125 256.391 366.644 272.75 346.5 272.75C326.356 272.75 309.875 256.391 309.875 236.125H261.042V114.042H431.958V236.125Z" fill="#AAC0B2"/>
<path d="M208.583 89.8333H24.4165V237.167H208.583V89.8333ZM190.167 126.667L116.5 172.708L42.8332 126.667V108.25L116.5 154.292L190.167 108.25V126.667Z" fill="#C0D2C0"/>
<path d="M135.5 84.4583H65.7175L74.525 41.7758L60.7492 28L0 88.7492V186.083H104.335L135.5 113.139V84.4583ZM166.665 140.917L135.5 213.861V242.542H205.283L196.475 285.224L210.251 299L271 238.251V140.917H166.665Z" fill="#013B01"/>
</g>
<defs>
<clipPath id="clip0_110_30">
<rect width="400" height="300" fill="white"/>
</clipPath>
</defs>
</svg>
