<svg width="400" height="300" viewBox="0 0 400 300" fill="none" xmlns="http://www.w3.org/2000/svg">
<rect width="400" height="300" fill="#D4E1DF"/>
<path d="M100.267 249.733V50H255.733L300 94.2667V249.733H100.267ZM121.333 228.667H278.667V103.6L246.4 71.3333H121.333V228.667ZM200 211.333C207.644 211.333 214.178 208.622 219.6 203.2C225.022 197.778 227.733 191.244 227.733 183.6C227.733 175.956 225.022 169.422 219.6 164C214.178 158.578 207.644 155.867 200 155.867C192.355 155.867 185.822 158.533 180.4 163.867C174.978 169.2 172.267 175.778 172.267 183.6C172.267 191.244 174.978 197.778 180.4 203.2C185.822 208.622 192.355 211.333 200 211.333ZM135.467 123.6H230.933V85.4667H135.467V123.6ZM121.333 228.667V71.3333V103.6V228.667Z" fill="#013B01"/>
</svg>
