<svg width="400" height="300" viewBox="0 0 400 300" fill="none" xmlns="http://www.w3.org/2000/svg">
<rect width="400" height="300" fill="#D4E1DF"/>
<path d="M96.7998 253.2V136.133H213.866V253.2H96.7998ZM96.7998 114.8V91.3333H118.133V114.8H96.7998ZM96.7998 67.8667V46.8H118.133V67.8667H96.7998ZM111.2 224.4H200.533L171.466 185.733L150.133 213.2L134.4 193.2L111.2 224.4ZM141.6 67.8667V46.8H165.066V67.8667H141.6ZM188.533 67.8667V46.8H212V67.8667H188.533ZM235.2 253.2V231.867H258.666V253.2H235.2ZM235.2 67.8667V46.8H258.666V67.8667H235.2ZM282.133 253.2V231.867H303.2V253.2H282.133ZM282.133 208.4V184.933H303.2V208.4H282.133ZM282.133 161.467V138H303.2V161.467H282.133ZM282.133 114.8V91.3333H303.2V114.8H282.133ZM282.133 67.8667V46.8H303.2V67.8667H282.133Z" fill="#013B01"/>
</svg>
