<svg width="400" height="300" viewBox="0 0 400 300" fill="none" xmlns="http://www.w3.org/2000/svg">
<rect width="400" height="300" fill="#D4E1DF"/>
<path d="M198.666 260.133L248.533 127.867H270.933L322.4 260.133H298.4L287.2 225.2H234.4L221.333 260.133H198.666ZM240.266 206H279.466L260 152.667H259.466L240.266 206ZM111.733 227.067L96.7998 211.867L153.066 155.867C145.955 147.689 139.733 139.511 134.4 131.333C129.066 123.156 124.355 114.711 120.266 106H144.266C147.289 112.044 150.666 117.778 154.4 123.2C158.133 128.622 162.4 134.178 167.2 139.867C175.555 131.156 182.489 122.178 188 112.933C193.511 103.689 198.222 94 202.133 83.8667H78.9331V61.7333H156V39.8667H178.133V61.7333H254.933V83.8667H224C219.911 96.4889 214.489 108.933 207.733 121.2C200.978 133.467 192.8 145.111 183.2 156.133L210.133 183.333L202.133 205.467L166.933 171.867L111.733 227.067Z" fill="#013B01"/>
</svg>
